<mxfile host="app.diagrams.net" modified="2024-05-14T16:30:48.721Z" agent="Mozilla/5.0 (Windows NT 10.0; Win64; x64) AppleWebKit/537.36 (KHTML, like Gecko) Chrome/124.0.0.0 Safari/537.36" etag="r7Hq70bsaoIIWvIfdaJ0" version="24.4.0" type="device">
  <diagram name="Página-1" id="tQa2aWQPgbzMz5TAeT4R">
    <mxGraphModel dx="2117" dy="572" grid="1" gridSize="10" guides="1" tooltips="1" connect="1" arrows="1" fold="1" page="1" pageScale="1" pageWidth="827" pageHeight="1169" math="0" shadow="0">
      <root>
        <mxCell id="0" />
        <mxCell id="1" parent="0" />
        <mxCell id="hrOOYMBVaBOdbedEVMHW-1" value="Cliente" style="swimlane;childLayout=stackLayout;horizontal=1;startSize=50;horizontalStack=0;rounded=1;fontSize=14;fontStyle=0;strokeWidth=2;resizeParent=0;resizeLast=1;shadow=0;dashed=0;align=center;arcSize=4;whiteSpace=wrap;html=1;" parent="1" vertex="1">
          <mxGeometry x="-580" y="430" width="150" height="140" as="geometry" />
        </mxCell>
        <mxCell id="hrOOYMBVaBOdbedEVMHW-2" value="id(PK)&lt;div&gt;nombre&lt;/div&gt;&lt;div&gt;apellido&lt;/div&gt;&lt;div&gt;direccion&lt;/div&gt;&lt;div&gt;DNI&lt;/div&gt;" style="align=left;strokeColor=none;fillColor=none;spacingLeft=4;fontSize=12;verticalAlign=top;resizable=0;rotatable=0;part=1;html=1;" parent="hrOOYMBVaBOdbedEVMHW-1" vertex="1">
          <mxGeometry y="50" width="150" height="90" as="geometry" />
        </mxCell>
        <mxCell id="hrOOYMBVaBOdbedEVMHW-3" value="Producto" style="swimlane;childLayout=stackLayout;horizontal=1;startSize=50;horizontalStack=0;rounded=1;fontSize=14;fontStyle=0;strokeWidth=2;resizeParent=0;resizeLast=1;shadow=0;dashed=0;align=center;arcSize=4;whiteSpace=wrap;html=1;" parent="1" vertex="1">
          <mxGeometry x="-10" y="430" width="130" height="120" as="geometry" />
        </mxCell>
        <mxCell id="hrOOYMBVaBOdbedEVMHW-4" value="id(PK)&lt;div&gt;codigo&lt;/div&gt;" style="align=left;strokeColor=none;fillColor=none;spacingLeft=4;fontSize=12;verticalAlign=top;resizable=0;rotatable=0;part=1;html=1;" parent="hrOOYMBVaBOdbedEVMHW-3" vertex="1">
          <mxGeometry y="50" width="130" height="70" as="geometry" />
        </mxCell>
        <mxCell id="hrOOYMBVaBOdbedEVMHW-16" style="edgeStyle=orthogonalEdgeStyle;rounded=0;orthogonalLoop=1;jettySize=auto;html=1;exitX=0.5;exitY=1;exitDx=0;exitDy=0;entryX=0.5;entryY=0;entryDx=0;entryDy=0;" parent="1" source="hrOOYMBVaBOdbedEVMHW-5" target="hrOOYMBVaBOdbedEVMHW-15" edge="1">
          <mxGeometry relative="1" as="geometry" />
        </mxCell>
        <mxCell id="hrOOYMBVaBOdbedEVMHW-5" value="DNI" style="ellipse;whiteSpace=wrap;html=1;align=center;" parent="1" vertex="1">
          <mxGeometry x="-810" y="140" width="100" height="40" as="geometry" />
        </mxCell>
        <mxCell id="hrOOYMBVaBOdbedEVMHW-12" style="edgeStyle=orthogonalEdgeStyle;rounded=0;orthogonalLoop=1;jettySize=auto;html=1;exitX=0.5;exitY=1;exitDx=0;exitDy=0;" parent="1" source="hrOOYMBVaBOdbedEVMHW-6" edge="1">
          <mxGeometry relative="1" as="geometry">
            <mxPoint x="-600" y="240" as="targetPoint" />
          </mxGeometry>
        </mxCell>
        <mxCell id="hrOOYMBVaBOdbedEVMHW-6" value="Nombre" style="ellipse;whiteSpace=wrap;html=1;align=center;" parent="1" vertex="1">
          <mxGeometry x="-700" y="140" width="100" height="40" as="geometry" />
        </mxCell>
        <mxCell id="hrOOYMBVaBOdbedEVMHW-13" style="edgeStyle=orthogonalEdgeStyle;rounded=0;orthogonalLoop=1;jettySize=auto;html=1;exitX=0.5;exitY=1;exitDx=0;exitDy=0;" parent="1" source="hrOOYMBVaBOdbedEVMHW-7" edge="1">
          <mxGeometry relative="1" as="geometry">
            <mxPoint x="-600" y="240" as="targetPoint" />
          </mxGeometry>
        </mxCell>
        <mxCell id="hrOOYMBVaBOdbedEVMHW-7" value="Apellido" style="ellipse;whiteSpace=wrap;html=1;align=center;" parent="1" vertex="1">
          <mxGeometry x="-590" y="140" width="100" height="40" as="geometry" />
        </mxCell>
        <mxCell id="hrOOYMBVaBOdbedEVMHW-14" style="edgeStyle=orthogonalEdgeStyle;rounded=0;orthogonalLoop=1;jettySize=auto;html=1;exitX=0.5;exitY=1;exitDx=0;exitDy=0;" parent="1" source="hrOOYMBVaBOdbedEVMHW-8" edge="1">
          <mxGeometry relative="1" as="geometry">
            <mxPoint x="-600" y="240" as="targetPoint" />
          </mxGeometry>
        </mxCell>
        <mxCell id="hrOOYMBVaBOdbedEVMHW-8" value="Dirección" style="ellipse;whiteSpace=wrap;html=1;align=center;" parent="1" vertex="1">
          <mxGeometry x="-480" y="140" width="100" height="40" as="geometry" />
        </mxCell>
        <mxCell id="hrOOYMBVaBOdbedEVMHW-15" value="Cliente" style="whiteSpace=wrap;html=1;align=center;" parent="1" vertex="1">
          <mxGeometry x="-650" y="240" width="100" height="40" as="geometry" />
        </mxCell>
        <mxCell id="hrOOYMBVaBOdbedEVMHW-23" style="edgeStyle=orthogonalEdgeStyle;rounded=0;orthogonalLoop=1;jettySize=auto;html=1;exitX=0.5;exitY=1;exitDx=0;exitDy=0;entryX=0.5;entryY=0;entryDx=0;entryDy=0;" parent="1" source="hrOOYMBVaBOdbedEVMHW-17" target="hrOOYMBVaBOdbedEVMHW-19" edge="1">
          <mxGeometry relative="1" as="geometry" />
        </mxCell>
        <mxCell id="hrOOYMBVaBOdbedEVMHW-17" value="ID" style="ellipse;whiteSpace=wrap;html=1;align=center;" parent="1" vertex="1">
          <mxGeometry x="-10" y="140" width="100" height="40" as="geometry" />
        </mxCell>
        <mxCell id="hrOOYMBVaBOdbedEVMHW-24" style="edgeStyle=orthogonalEdgeStyle;rounded=0;orthogonalLoop=1;jettySize=auto;html=1;exitX=0.5;exitY=1;exitDx=0;exitDy=0;" parent="1" source="hrOOYMBVaBOdbedEVMHW-18" target="hrOOYMBVaBOdbedEVMHW-19" edge="1">
          <mxGeometry relative="1" as="geometry" />
        </mxCell>
        <mxCell id="hrOOYMBVaBOdbedEVMHW-18" value="Nombre" style="ellipse;whiteSpace=wrap;html=1;align=center;" parent="1" vertex="1">
          <mxGeometry x="130" y="140" width="100" height="40" as="geometry" />
        </mxCell>
        <mxCell id="hrOOYMBVaBOdbedEVMHW-19" value="Producto" style="whiteSpace=wrap;html=1;align=center;" parent="1" vertex="1">
          <mxGeometry x="63" y="240" width="100" height="40" as="geometry" />
        </mxCell>
        <mxCell id="hrOOYMBVaBOdbedEVMHW-25" style="edgeStyle=orthogonalEdgeStyle;rounded=0;orthogonalLoop=1;jettySize=auto;html=1;exitX=0.5;exitY=1;exitDx=0;exitDy=0;entryX=0.5;entryY=0;entryDx=0;entryDy=0;" parent="1" source="hrOOYMBVaBOdbedEVMHW-26" target="hrOOYMBVaBOdbedEVMHW-29" edge="1">
          <mxGeometry relative="1" as="geometry" />
        </mxCell>
        <mxCell id="hrOOYMBVaBOdbedEVMHW-26" value="Cliente_id" style="ellipse;whiteSpace=wrap;html=1;align=center;" parent="1" vertex="1">
          <mxGeometry x="-320" y="140" width="100" height="40" as="geometry" />
        </mxCell>
        <mxCell id="hrOOYMBVaBOdbedEVMHW-27" style="edgeStyle=orthogonalEdgeStyle;rounded=0;orthogonalLoop=1;jettySize=auto;html=1;exitX=0.5;exitY=1;exitDx=0;exitDy=0;" parent="1" source="hrOOYMBVaBOdbedEVMHW-28" target="hrOOYMBVaBOdbedEVMHW-29" edge="1">
          <mxGeometry relative="1" as="geometry" />
        </mxCell>
        <mxCell id="hrOOYMBVaBOdbedEVMHW-28" value="producto_id" style="ellipse;whiteSpace=wrap;html=1;align=center;" parent="1" vertex="1">
          <mxGeometry x="-180" y="140" width="100" height="40" as="geometry" />
        </mxCell>
        <mxCell id="hrOOYMBVaBOdbedEVMHW-29" value="cliente_producto&lt;div&gt;(compra)&lt;/div&gt;" style="whiteSpace=wrap;html=1;align=center;" parent="1" vertex="1">
          <mxGeometry x="-247" y="240" width="100" height="40" as="geometry" />
        </mxCell>
        <mxCell id="hrOOYMBVaBOdbedEVMHW-35" value="1" style="text;html=1;align=center;verticalAlign=middle;whiteSpace=wrap;rounded=0;" parent="1" vertex="1">
          <mxGeometry x="-560" y="230" width="60" height="30" as="geometry" />
        </mxCell>
        <mxCell id="hrOOYMBVaBOdbedEVMHW-38" value="" style="endArrow=none;html=1;rounded=0;entryX=0;entryY=0.5;entryDx=0;entryDy=0;" parent="1" target="hrOOYMBVaBOdbedEVMHW-29" edge="1">
          <mxGeometry relative="1" as="geometry">
            <mxPoint x="-550" y="260" as="sourcePoint" />
            <mxPoint x="-250" y="260" as="targetPoint" />
          </mxGeometry>
        </mxCell>
        <mxCell id="hrOOYMBVaBOdbedEVMHW-37" value="n" style="text;html=1;align=center;verticalAlign=middle;whiteSpace=wrap;rounded=0;" parent="1" vertex="1">
          <mxGeometry x="-287" y="230" width="40" height="30" as="geometry" />
        </mxCell>
        <mxCell id="hrOOYMBVaBOdbedEVMHW-39" value="" style="endArrow=none;html=1;rounded=0;" parent="1" target="hrOOYMBVaBOdbedEVMHW-19" edge="1">
          <mxGeometry relative="1" as="geometry">
            <mxPoint x="-147" y="259" as="sourcePoint" />
            <mxPoint x="60" y="259" as="targetPoint" />
          </mxGeometry>
        </mxCell>
        <mxCell id="hrOOYMBVaBOdbedEVMHW-40" value="n" style="text;html=1;align=center;verticalAlign=middle;whiteSpace=wrap;rounded=0;" parent="1" vertex="1">
          <mxGeometry x="-147" y="230" width="40" height="30" as="geometry" />
        </mxCell>
        <mxCell id="hrOOYMBVaBOdbedEVMHW-41" value="1" style="text;html=1;align=center;verticalAlign=middle;whiteSpace=wrap;rounded=0;" parent="1" vertex="1">
          <mxGeometry x="23" y="235" width="40" height="20" as="geometry" />
        </mxCell>
        <mxCell id="hrOOYMBVaBOdbedEVMHW-45" value="Compra" style="swimlane;childLayout=stackLayout;horizontal=1;startSize=50;horizontalStack=0;rounded=1;fontSize=14;fontStyle=0;strokeWidth=2;resizeParent=0;resizeLast=1;shadow=0;dashed=0;align=center;arcSize=4;whiteSpace=wrap;html=1;" parent="1" vertex="1">
          <mxGeometry x="-290" y="430" width="130" height="120" as="geometry" />
        </mxCell>
        <mxCell id="hrOOYMBVaBOdbedEVMHW-50" value="id(PK)&lt;div&gt;cliente_id(FK)&lt;/div&gt;&lt;div&gt;producto_id(FK)&lt;/div&gt;" style="align=left;strokeColor=none;fillColor=none;spacingLeft=4;fontSize=12;verticalAlign=top;resizable=0;rotatable=0;part=1;html=1;" parent="hrOOYMBVaBOdbedEVMHW-45" vertex="1">
          <mxGeometry y="50" width="130" height="70" as="geometry" />
        </mxCell>
        <mxCell id="hrOOYMBVaBOdbedEVMHW-48" style="edgeStyle=orthogonalEdgeStyle;rounded=0;orthogonalLoop=1;jettySize=auto;html=1;exitX=0.5;exitY=1;exitDx=0;exitDy=0;entryX=0.5;entryY=0;entryDx=0;entryDy=0;" parent="1" source="hrOOYMBVaBOdbedEVMHW-47" target="hrOOYMBVaBOdbedEVMHW-29" edge="1">
          <mxGeometry relative="1" as="geometry" />
        </mxCell>
        <mxCell id="hrOOYMBVaBOdbedEVMHW-47" value="id" style="ellipse;whiteSpace=wrap;html=1;align=center;" parent="1" vertex="1">
          <mxGeometry x="-247" y="80" width="100" height="40" as="geometry" />
        </mxCell>
        <mxCell id="hrOOYMBVaBOdbedEVMHW-49" value="" style="edgeStyle=entityRelationEdgeStyle;fontSize=12;html=1;endArrow=ERoneToMany;rounded=0;entryX=0;entryY=0.429;entryDx=0;entryDy=0;entryPerimeter=0;" parent="1" target="hrOOYMBVaBOdbedEVMHW-50" edge="1">
          <mxGeometry width="100" height="100" relative="1" as="geometry">
            <mxPoint x="-430" y="510" as="sourcePoint" />
            <mxPoint x="-310" y="510" as="targetPoint" />
            <Array as="points">
              <mxPoint x="-390" y="450" />
            </Array>
          </mxGeometry>
        </mxCell>
        <mxCell id="hrOOYMBVaBOdbedEVMHW-53" value="" style="edgeStyle=entityRelationEdgeStyle;fontSize=12;html=1;endArrow=ERoneToMany;rounded=0;entryX=1;entryY=0.5;entryDx=0;entryDy=0;exitX=0.022;exitY=-0.033;exitDx=0;exitDy=0;exitPerimeter=0;" parent="1" source="qG38tY5jzCgiwgxcdscv-32" target="qG38tY5jzCgiwgxcdscv-19" edge="1">
          <mxGeometry width="100" height="100" relative="1" as="geometry">
            <mxPoint x="0.6599999999999913" y="850.77" as="sourcePoint" />
            <mxPoint x="-147.00000000000009" y="850" as="targetPoint" />
            <Array as="points">
              <mxPoint x="-107.6" y="899.3" />
              <mxPoint x="2.4000000000000004" y="854.8" />
              <mxPoint x="-7.6" y="854.8" />
              <mxPoint x="-139.6" y="854.8" />
              <mxPoint x="-119.6" y="854.8" />
              <mxPoint x="192.4" y="929.3" />
            </Array>
          </mxGeometry>
        </mxCell>
        <mxCell id="qG38tY5jzCgiwgxcdscv-1" value="Cliente" style="shape=table;startSize=30;container=1;collapsible=1;childLayout=tableLayout;fixedRows=1;rowLines=0;fontStyle=1;align=center;resizeLast=1;html=1;" vertex="1" parent="1">
          <mxGeometry x="-680" y="640" width="260" height="180" as="geometry" />
        </mxCell>
        <mxCell id="qG38tY5jzCgiwgxcdscv-2" value="" style="shape=tableRow;horizontal=0;startSize=0;swimlaneHead=0;swimlaneBody=0;fillColor=none;collapsible=0;dropTarget=0;points=[[0,0.5],[1,0.5]];portConstraint=eastwest;top=0;left=0;right=0;bottom=1;" vertex="1" parent="qG38tY5jzCgiwgxcdscv-1">
          <mxGeometry y="30" width="260" height="30" as="geometry" />
        </mxCell>
        <mxCell id="qG38tY5jzCgiwgxcdscv-3" value="PK" style="shape=partialRectangle;connectable=0;fillColor=none;top=0;left=0;bottom=0;right=0;fontStyle=1;overflow=hidden;whiteSpace=wrap;html=1;" vertex="1" parent="qG38tY5jzCgiwgxcdscv-2">
          <mxGeometry width="30" height="30" as="geometry">
            <mxRectangle width="30" height="30" as="alternateBounds" />
          </mxGeometry>
        </mxCell>
        <mxCell id="qG38tY5jzCgiwgxcdscv-4" value="ID SERIAL" style="shape=partialRectangle;connectable=0;fillColor=none;top=0;left=0;bottom=0;right=0;align=left;spacingLeft=6;fontStyle=5;overflow=hidden;whiteSpace=wrap;html=1;" vertex="1" parent="qG38tY5jzCgiwgxcdscv-2">
          <mxGeometry x="30" width="230" height="30" as="geometry">
            <mxRectangle width="230" height="30" as="alternateBounds" />
          </mxGeometry>
        </mxCell>
        <mxCell id="qG38tY5jzCgiwgxcdscv-5" value="" style="shape=tableRow;horizontal=0;startSize=0;swimlaneHead=0;swimlaneBody=0;fillColor=none;collapsible=0;dropTarget=0;points=[[0,0.5],[1,0.5]];portConstraint=eastwest;top=0;left=0;right=0;bottom=0;" vertex="1" parent="qG38tY5jzCgiwgxcdscv-1">
          <mxGeometry y="60" width="260" height="30" as="geometry" />
        </mxCell>
        <mxCell id="qG38tY5jzCgiwgxcdscv-6" value="" style="shape=partialRectangle;connectable=0;fillColor=none;top=0;left=0;bottom=0;right=0;editable=1;overflow=hidden;whiteSpace=wrap;html=1;" vertex="1" parent="qG38tY5jzCgiwgxcdscv-5">
          <mxGeometry width="30" height="30" as="geometry">
            <mxRectangle width="30" height="30" as="alternateBounds" />
          </mxGeometry>
        </mxCell>
        <mxCell id="qG38tY5jzCgiwgxcdscv-7" value="nombre: varchar (50) NOT NULL" style="shape=partialRectangle;connectable=0;fillColor=none;top=0;left=0;bottom=0;right=0;align=left;spacingLeft=6;overflow=hidden;whiteSpace=wrap;html=1;" vertex="1" parent="qG38tY5jzCgiwgxcdscv-5">
          <mxGeometry x="30" width="230" height="30" as="geometry">
            <mxRectangle width="230" height="30" as="alternateBounds" />
          </mxGeometry>
        </mxCell>
        <mxCell id="qG38tY5jzCgiwgxcdscv-8" value="" style="shape=tableRow;horizontal=0;startSize=0;swimlaneHead=0;swimlaneBody=0;fillColor=none;collapsible=0;dropTarget=0;points=[[0,0.5],[1,0.5]];portConstraint=eastwest;top=0;left=0;right=0;bottom=0;" vertex="1" parent="qG38tY5jzCgiwgxcdscv-1">
          <mxGeometry y="90" width="260" height="30" as="geometry" />
        </mxCell>
        <mxCell id="qG38tY5jzCgiwgxcdscv-9" value="" style="shape=partialRectangle;connectable=0;fillColor=none;top=0;left=0;bottom=0;right=0;editable=1;overflow=hidden;whiteSpace=wrap;html=1;" vertex="1" parent="qG38tY5jzCgiwgxcdscv-8">
          <mxGeometry width="30" height="30" as="geometry">
            <mxRectangle width="30" height="30" as="alternateBounds" />
          </mxGeometry>
        </mxCell>
        <mxCell id="qG38tY5jzCgiwgxcdscv-10" value="apellido:&amp;nbsp;varchar (50) NOT NULL" style="shape=partialRectangle;connectable=0;fillColor=none;top=0;left=0;bottom=0;right=0;align=left;spacingLeft=6;overflow=hidden;whiteSpace=wrap;html=1;" vertex="1" parent="qG38tY5jzCgiwgxcdscv-8">
          <mxGeometry x="30" width="230" height="30" as="geometry">
            <mxRectangle width="230" height="30" as="alternateBounds" />
          </mxGeometry>
        </mxCell>
        <mxCell id="qG38tY5jzCgiwgxcdscv-11" value="" style="shape=tableRow;horizontal=0;startSize=0;swimlaneHead=0;swimlaneBody=0;fillColor=none;collapsible=0;dropTarget=0;points=[[0,0.5],[1,0.5]];portConstraint=eastwest;top=0;left=0;right=0;bottom=0;" vertex="1" parent="qG38tY5jzCgiwgxcdscv-1">
          <mxGeometry y="120" width="260" height="30" as="geometry" />
        </mxCell>
        <mxCell id="qG38tY5jzCgiwgxcdscv-12" value="" style="shape=partialRectangle;connectable=0;fillColor=none;top=0;left=0;bottom=0;right=0;editable=1;overflow=hidden;whiteSpace=wrap;html=1;" vertex="1" parent="qG38tY5jzCgiwgxcdscv-11">
          <mxGeometry width="30" height="30" as="geometry">
            <mxRectangle width="30" height="30" as="alternateBounds" />
          </mxGeometry>
        </mxCell>
        <mxCell id="qG38tY5jzCgiwgxcdscv-13" value="direccion: varchar NOT NULL" style="shape=partialRectangle;connectable=0;fillColor=none;top=0;left=0;bottom=0;right=0;align=left;spacingLeft=6;overflow=hidden;whiteSpace=wrap;html=1;" vertex="1" parent="qG38tY5jzCgiwgxcdscv-11">
          <mxGeometry x="30" width="230" height="30" as="geometry">
            <mxRectangle width="230" height="30" as="alternateBounds" />
          </mxGeometry>
        </mxCell>
        <mxCell id="qG38tY5jzCgiwgxcdscv-50" value="" style="shape=tableRow;horizontal=0;startSize=0;swimlaneHead=0;swimlaneBody=0;fillColor=none;collapsible=0;dropTarget=0;points=[[0,0.5],[1,0.5]];portConstraint=eastwest;top=0;left=0;right=0;bottom=0;" vertex="1" parent="qG38tY5jzCgiwgxcdscv-1">
          <mxGeometry y="150" width="260" height="30" as="geometry" />
        </mxCell>
        <mxCell id="qG38tY5jzCgiwgxcdscv-51" value="" style="shape=partialRectangle;connectable=0;fillColor=none;top=0;left=0;bottom=0;right=0;editable=1;overflow=hidden;whiteSpace=wrap;html=1;" vertex="1" parent="qG38tY5jzCgiwgxcdscv-50">
          <mxGeometry width="30" height="30" as="geometry">
            <mxRectangle width="30" height="30" as="alternateBounds" />
          </mxGeometry>
        </mxCell>
        <mxCell id="qG38tY5jzCgiwgxcdscv-52" value="DNI&amp;nbsp;&amp;nbsp;varchar (50) NOT NULL UNIQUE" style="shape=partialRectangle;connectable=0;fillColor=none;top=0;left=0;bottom=0;right=0;align=left;spacingLeft=6;overflow=hidden;whiteSpace=wrap;html=1;" vertex="1" parent="qG38tY5jzCgiwgxcdscv-50">
          <mxGeometry x="30" width="230" height="30" as="geometry">
            <mxRectangle width="230" height="30" as="alternateBounds" />
          </mxGeometry>
        </mxCell>
        <mxCell id="qG38tY5jzCgiwgxcdscv-15" value="Compra" style="shape=table;startSize=30;container=1;collapsible=1;childLayout=tableLayout;fixedRows=1;rowLines=0;fontStyle=1;align=center;resizeLast=1;html=1;" vertex="1" parent="1">
          <mxGeometry x="-340" y="670" width="180" height="120" as="geometry" />
        </mxCell>
        <mxCell id="qG38tY5jzCgiwgxcdscv-16" value="" style="shape=tableRow;horizontal=0;startSize=0;swimlaneHead=0;swimlaneBody=0;fillColor=none;collapsible=0;dropTarget=0;points=[[0,0.5],[1,0.5]];portConstraint=eastwest;top=0;left=0;right=0;bottom=1;" vertex="1" parent="qG38tY5jzCgiwgxcdscv-15">
          <mxGeometry y="30" width="180" height="30" as="geometry" />
        </mxCell>
        <mxCell id="qG38tY5jzCgiwgxcdscv-17" value="PK" style="shape=partialRectangle;connectable=0;fillColor=none;top=0;left=0;bottom=0;right=0;fontStyle=1;overflow=hidden;whiteSpace=wrap;html=1;" vertex="1" parent="qG38tY5jzCgiwgxcdscv-16">
          <mxGeometry width="30" height="30" as="geometry">
            <mxRectangle width="30" height="30" as="alternateBounds" />
          </mxGeometry>
        </mxCell>
        <mxCell id="qG38tY5jzCgiwgxcdscv-18" value="ID SERIAL" style="shape=partialRectangle;connectable=0;fillColor=none;top=0;left=0;bottom=0;right=0;align=left;spacingLeft=6;fontStyle=5;overflow=hidden;whiteSpace=wrap;html=1;" vertex="1" parent="qG38tY5jzCgiwgxcdscv-16">
          <mxGeometry x="30" width="150" height="30" as="geometry">
            <mxRectangle width="150" height="30" as="alternateBounds" />
          </mxGeometry>
        </mxCell>
        <mxCell id="qG38tY5jzCgiwgxcdscv-19" value="" style="shape=tableRow;horizontal=0;startSize=0;swimlaneHead=0;swimlaneBody=0;fillColor=none;collapsible=0;dropTarget=0;points=[[0,0.5],[1,0.5]];portConstraint=eastwest;top=0;left=0;right=0;bottom=0;" vertex="1" parent="qG38tY5jzCgiwgxcdscv-15">
          <mxGeometry y="60" width="180" height="30" as="geometry" />
        </mxCell>
        <mxCell id="qG38tY5jzCgiwgxcdscv-20" value="FK" style="shape=partialRectangle;connectable=0;fillColor=none;top=0;left=0;bottom=0;right=0;editable=1;overflow=hidden;whiteSpace=wrap;html=1;" vertex="1" parent="qG38tY5jzCgiwgxcdscv-19">
          <mxGeometry width="30" height="30" as="geometry">
            <mxRectangle width="30" height="30" as="alternateBounds" />
          </mxGeometry>
        </mxCell>
        <mxCell id="qG38tY5jzCgiwgxcdscv-21" value="cliente_id" style="shape=partialRectangle;connectable=0;fillColor=none;top=0;left=0;bottom=0;right=0;align=left;spacingLeft=6;overflow=hidden;whiteSpace=wrap;html=1;" vertex="1" parent="qG38tY5jzCgiwgxcdscv-19">
          <mxGeometry x="30" width="150" height="30" as="geometry">
            <mxRectangle width="150" height="30" as="alternateBounds" />
          </mxGeometry>
        </mxCell>
        <mxCell id="qG38tY5jzCgiwgxcdscv-22" value="" style="shape=tableRow;horizontal=0;startSize=0;swimlaneHead=0;swimlaneBody=0;fillColor=none;collapsible=0;dropTarget=0;points=[[0,0.5],[1,0.5]];portConstraint=eastwest;top=0;left=0;right=0;bottom=0;" vertex="1" parent="qG38tY5jzCgiwgxcdscv-15">
          <mxGeometry y="90" width="180" height="30" as="geometry" />
        </mxCell>
        <mxCell id="qG38tY5jzCgiwgxcdscv-23" value="FK" style="shape=partialRectangle;connectable=0;fillColor=none;top=0;left=0;bottom=0;right=0;editable=1;overflow=hidden;whiteSpace=wrap;html=1;" vertex="1" parent="qG38tY5jzCgiwgxcdscv-22">
          <mxGeometry width="30" height="30" as="geometry">
            <mxRectangle width="30" height="30" as="alternateBounds" />
          </mxGeometry>
        </mxCell>
        <mxCell id="qG38tY5jzCgiwgxcdscv-24" value="producto_id" style="shape=partialRectangle;connectable=0;fillColor=none;top=0;left=0;bottom=0;right=0;align=left;spacingLeft=6;overflow=hidden;whiteSpace=wrap;html=1;" vertex="1" parent="qG38tY5jzCgiwgxcdscv-22">
          <mxGeometry x="30" width="150" height="30" as="geometry">
            <mxRectangle width="150" height="30" as="alternateBounds" />
          </mxGeometry>
        </mxCell>
        <mxCell id="qG38tY5jzCgiwgxcdscv-28" value="Producto" style="shape=table;startSize=30;container=1;collapsible=1;childLayout=tableLayout;fixedRows=1;rowLines=0;fontStyle=1;align=center;resizeLast=1;html=1;" vertex="1" parent="1">
          <mxGeometry x="-70" y="670" width="250" height="90" as="geometry" />
        </mxCell>
        <mxCell id="qG38tY5jzCgiwgxcdscv-29" value="" style="shape=tableRow;horizontal=0;startSize=0;swimlaneHead=0;swimlaneBody=0;fillColor=none;collapsible=0;dropTarget=0;points=[[0,0.5],[1,0.5]];portConstraint=eastwest;top=0;left=0;right=0;bottom=1;" vertex="1" parent="qG38tY5jzCgiwgxcdscv-28">
          <mxGeometry y="30" width="250" height="30" as="geometry" />
        </mxCell>
        <mxCell id="qG38tY5jzCgiwgxcdscv-30" value="PK" style="shape=partialRectangle;connectable=0;fillColor=none;top=0;left=0;bottom=0;right=0;fontStyle=1;overflow=hidden;whiteSpace=wrap;html=1;" vertex="1" parent="qG38tY5jzCgiwgxcdscv-29">
          <mxGeometry width="30" height="30" as="geometry">
            <mxRectangle width="30" height="30" as="alternateBounds" />
          </mxGeometry>
        </mxCell>
        <mxCell id="qG38tY5jzCgiwgxcdscv-31" value="ID SERIAL" style="shape=partialRectangle;connectable=0;fillColor=none;top=0;left=0;bottom=0;right=0;align=left;spacingLeft=6;fontStyle=5;overflow=hidden;whiteSpace=wrap;html=1;" vertex="1" parent="qG38tY5jzCgiwgxcdscv-29">
          <mxGeometry x="30" width="220" height="30" as="geometry">
            <mxRectangle width="220" height="30" as="alternateBounds" />
          </mxGeometry>
        </mxCell>
        <mxCell id="qG38tY5jzCgiwgxcdscv-32" value="" style="shape=tableRow;horizontal=0;startSize=0;swimlaneHead=0;swimlaneBody=0;fillColor=none;collapsible=0;dropTarget=0;points=[[0,0.5],[1,0.5]];portConstraint=eastwest;top=0;left=0;right=0;bottom=0;" vertex="1" parent="qG38tY5jzCgiwgxcdscv-28">
          <mxGeometry y="60" width="250" height="30" as="geometry" />
        </mxCell>
        <mxCell id="qG38tY5jzCgiwgxcdscv-33" value="" style="shape=partialRectangle;connectable=0;fillColor=none;top=0;left=0;bottom=0;right=0;editable=1;overflow=hidden;whiteSpace=wrap;html=1;" vertex="1" parent="qG38tY5jzCgiwgxcdscv-32">
          <mxGeometry width="30" height="30" as="geometry">
            <mxRectangle width="30" height="30" as="alternateBounds" />
          </mxGeometry>
        </mxCell>
        <mxCell id="qG38tY5jzCgiwgxcdscv-34" value="codigo varchar NOT NULL UNIQUE" style="shape=partialRectangle;connectable=0;fillColor=none;top=0;left=0;bottom=0;right=0;align=left;spacingLeft=6;overflow=hidden;whiteSpace=wrap;html=1;" vertex="1" parent="qG38tY5jzCgiwgxcdscv-32">
          <mxGeometry x="30" width="220" height="30" as="geometry">
            <mxRectangle width="220" height="30" as="alternateBounds" />
          </mxGeometry>
        </mxCell>
        <mxCell id="qG38tY5jzCgiwgxcdscv-41" value="" style="edgeStyle=entityRelationEdgeStyle;fontSize=12;html=1;endArrow=ERoneToMany;rounded=0;entryX=0;entryY=0.5;entryDx=0;entryDy=0;" edge="1" parent="1" target="qG38tY5jzCgiwgxcdscv-16">
          <mxGeometry width="100" height="100" relative="1" as="geometry">
            <mxPoint x="-420" y="760" as="sourcePoint" />
            <mxPoint x="-320" y="660" as="targetPoint" />
          </mxGeometry>
        </mxCell>
      </root>
    </mxGraphModel>
  </diagram>
</mxfile>
